<?xml version="1.0" standalone="no"?>
<!DOCTYPE svg PUBLIC "-//W3C//DTD SVG 20010904//EN"
 "http://www.w3.org/TR/2001/REC-SVG-20010904/DTD/svg10.dtd">
<svg version="1.0" xmlns="http://www.w3.org/2000/svg"
 width="512.000000pt" height="512.000000pt" viewBox="0 0 512.000000 512.000000"
 preserveAspectRatio="xMidYMid meet">

<g transform="translate(0.000000,512.000000) scale(0.100000,-0.100000)"
fill="#000000" stroke="none">
<path d="M2098 4651 l-33 -29 -3 -135 -3 -134 -97 -32 c-53 -18 -149 -57 -212
-87 l-114 -55 -86 85 c-95 94 -122 109 -172 96 -44 -13 -614 -580 -626 -625
-15 -51 3 -85 93 -175 l86 -86 -55 -114 c-30 -63 -69 -159 -87 -212 l-32 -97
-134 -3 -135 -3 -29 -33 -29 -32 0 -165 0 -165 -175 0 c-192 0 -221 -7 -243
-55 -24 -51 -4 -112 43 -133 38 -17 2112 -17 2150 0 59 27 73 112 26 159 l-29
29 -236 0 -235 0 6 38 c10 69 64 216 103 282 105 177 261 303 460 372 93 32
99 33 260 33 161 0 167 -1 261 -33 196 -68 354 -196 460 -373 38 -62 92 -212
102 -281 l6 -38 -235 0 -236 0 -29 -29 c-47 -47 -33 -132 26 -159 38 -17 2112
-17 2150 0 49 22 68 85 41 137 -24 45 -52 51 -241 51 l-175 0 0 165 0 165 -29
32 -29 33 -135 3 -134 3 -32 97 c-18 53 -57 149 -87 212 l-55 114 86 86 c89
89 108 124 94 175 -12 44 -583 612 -627 625 -50 13 -77 -2 -173 -96 l-85 -85
-114 55 c-62 30 -157 69 -211 87 l-98 32 -3 134 -3 135 -33 29 -32 29 -430 0
-430 0 -32 -29z m752 -276 c0 -115 14 -166 50 -185 12 -7 54 -21 94 -32 148
-40 263 -87 387 -159 127 -72 140 -70 248 36 l86 84 207 -206 207 -207 -84
-87 c-105 -107 -108 -123 -40 -239 71 -124 123 -251 163 -396 11 -40 25 -82
32 -94 19 -36 70 -50 185 -50 l105 0 0 -95 0 -95 -449 0 -448 0 -6 59 c-14
126 -100 336 -186 451 -309 413 -842 545 -1299 323 -143 -70 -294 -198 -388
-329 -88 -123 -167 -318 -181 -445 l-6 -59 -448 0 -449 0 0 95 0 95 105 0
c115 0 166 14 185 50 7 12 21 54 32 94 40 148 87 263 159 387 72 127 70 140
-36 248 l-84 86 206 207 207 207 87 -84 c109 -107 119 -109 257 -31 113 64
219 108 354 147 54 16 107 33 119 39 35 19 49 70 49 185 l0 105 290 0 290 0 0
-105z"/>
<path d="M2489 2621 c-81 -81 17 -210 120 -157 90 47 53 186 -49 186 -33 0
-48 -6 -71 -29z"/>
<path d="M3992 2119 c-74 -9 -177 -54 -238 -104 -23 -19 -61 -62 -83 -96 -161
-241 -75 -563 182 -685 58 -27 97 -37 185 -48 130 -16 184 -42 233 -109 62
-85 72 -192 27 -282 -92 -184 -343 -203 -461 -35 -43 62 -68 79 -115 80 -45 0
-92 -46 -92 -90 0 -46 35 -107 99 -170 184 -184 484 -180 664 9 181 189 177
474 -7 656 -94 92 -157 118 -355 144 -111 14 -196 81 -229 180 -15 44 -15 123
0 173 15 52 87 131 143 158 98 47 249 15 313 -67 56 -71 115 -82 168 -29 43
43 44 79 6 132 -98 135 -264 204 -440 183z"/>
<path d="M906 2069 c-148 -35 -276 -172 -306 -329 -13 -69 -13 -841 0 -910 30
-156 143 -282 293 -325 47 -13 93 -16 245 -13 l188 3 67 33 c136 67 226 196
235 337 4 72 4 75 -26 104 -58 59 -154 26 -167 -57 -17 -108 -53 -165 -127
-203 -36 -18 -56 -20 -208 -17 l-168 3 -44 30 c-24 17 -54 51 -68 75 l-25 45
-3 417 c-2 267 1 432 8 456 14 55 61 115 106 138 55 27 326 34 390 9 78 -30
121 -95 139 -209 13 -84 107 -116 166 -57 24 25 29 38 29 79 0 166 -125 332
-287 382 -55 17 -91 20 -232 19 -91 -1 -183 -5 -205 -10z"/>
<path d="M1939 2031 l-29 -29 0 -715 0 -715 25 -30 c29 -35 69 -45 110 -28 62
26 60 2 65 553 l5 503 210 -376 c225 -404 237 -420 304 -410 18 3 41 12 50 20
10 9 112 184 227 390 l209 373 5 -496 c6 -553 4 -537 73 -560 40 -14 75 -3
106 30 21 23 21 26 21 740 l0 717 -26 31 c-21 26 -33 31 -69 31 -26 0 -51 -7
-63 -17 -11 -10 -136 -225 -277 -478 -142 -253 -261 -463 -264 -468 -4 -4
-124 201 -266 455 -143 255 -270 473 -282 486 -34 34 -96 31 -134 -7z"/>
</g>
</svg>
